<svg width="16" height="16" viewBox="0 0 16 16" fill="none" xmlns="http://www.w3.org/2000/svg">
<path d="M11.3333 1.33203C10.9667 1.33203 10.6667 1.63203 10.6667 1.9987V2.66536H5.33333V1.9987C5.33333 1.63203 5.03333 1.33203 4.66667 1.33203C4.3 1.33203 4 1.63203 4 1.9987V2.66536H3.33333C2.59333 2.66536 2.00667 3.26536 2.00667 3.9987L2 13.332C2 14.0654 2.59333 14.6654 3.33333 14.6654H12.6667C13.4 14.6654 14 14.0654 14 13.332V3.9987C14 3.26536 13.4 2.66536 12.6667 2.66536H12V1.9987C12 1.63203 11.7 1.33203 11.3333 1.33203ZM12.6667 13.332H3.33333V6.66536H12.6667V13.332ZM7.33333 8.66536C7.33333 8.2987 7.63333 7.9987 8 7.9987C8.36667 7.9987 8.66667 8.2987 8.66667 8.66536C8.66667 9.03203 8.36667 9.33203 8 9.33203C7.63333 9.33203 7.33333 9.03203 7.33333 8.66536ZM4.66667 8.66536C4.66667 8.2987 4.96667 7.9987 5.33333 7.9987C5.7 7.9987 6 8.2987 6 8.66536C6 9.03203 5.7 9.33203 5.33333 9.33203C4.96667 9.33203 4.66667 9.03203 4.66667 8.66536ZM10 8.66536C10 8.2987 10.3 7.9987 10.6667 7.9987C11.0333 7.9987 11.3333 8.2987 11.3333 8.66536C11.3333 9.03203 11.0333 9.33203 10.6667 9.33203C10.3 9.33203 10 9.03203 10 8.66536ZM7.33333 11.332C7.33333 10.9654 7.63333 10.6654 8 10.6654C8.36667 10.6654 8.66667 10.9654 8.66667 11.332C8.66667 11.6987 8.36667 11.9987 8 11.9987C7.63333 11.9987 7.33333 11.6987 7.33333 11.332ZM4.66667 11.332C4.66667 10.9654 4.96667 10.6654 5.33333 10.6654C5.7 10.6654 6 10.9654 6 11.332C6 11.6987 5.7 11.9987 5.33333 11.9987C4.96667 11.9987 4.66667 11.6987 4.66667 11.332ZM10 11.332C10 10.9654 10.3 10.6654 10.6667 10.6654C11.0333 10.6654 11.3333 10.9654 11.3333 11.332C11.3333 11.6987 11.0333 11.9987 10.6667 11.9987C10.3 11.9987 10 11.6987 10 11.332Z" fill="#F57B00"/>
</svg>
