<svg width="40" height="48" viewBox="0 0 40 48" fill="none" xmlns="http://www.w3.org/2000/svg">
<mask id="path-1-inside-1_569_2806" fill="white">
<path d="M0 0H40V48H0V0Z"/>
</mask>
<path d="M0 1H40V-1H0V1Z" fill="#DDE1E6" mask="url(#path-1-inside-1_569_2806)"/>
<path d="M15.334 26C14.8036 26 14.2948 25.7893 13.9198 25.4142C13.5447 25.0391 13.334 24.5304 13.334 24C13.334 23.4696 13.5447 22.9609 13.9198 22.5858C14.2948 22.2107 14.8036 22 15.334 22C15.8644 22 16.3731 22.2107 16.7482 22.5858C17.1233 22.9609 17.334 23.4696 17.334 24C17.334 24.5304 17.1233 25.0391 16.7482 25.4142C16.3731 25.7893 15.8644 26 15.334 26ZM24.6673 26C24.1369 26 23.6282 25.7893 23.2531 25.4142C22.878 25.0391 22.6673 24.5304 22.6673 24C22.6673 23.4696 22.878 22.9609 23.2531 22.5858C23.6282 22.2107 24.1369 22 24.6673 22C25.1978 22 25.7065 22.2107 26.0815 22.5858C26.4566 22.9609 26.6673 23.4696 26.6673 24C26.6673 24.5304 26.4566 25.0391 26.0815 25.4142C25.7065 25.7893 25.1978 26 24.6673 26ZM20.0007 26C19.4702 26 18.9615 25.7893 18.5864 25.4142C18.2114 25.0391 18.0007 24.5304 18.0007 24C18.0007 23.4696 18.2114 22.9609 18.5864 22.5858C18.9615 22.2107 19.4702 22 20.0007 22C20.5311 22 21.0398 22.2107 21.4149 22.5858C21.7899 22.9609 22.0007 23.4696 22.0007 24C22.0007 24.5304 21.7899 25.0391 21.4149 25.4142C21.0398 25.7893 20.5311 26 20.0007 26Z" fill="#697077"/>
</svg>
