<svg width="24" height="24" viewBox="0 0 24 24" fill="none" xmlns="http://www.w3.org/2000/svg">
<path d="M13.4004 11.4004V6.40039C13.4004 6.13517 13.295 5.88082 13.1075 5.69328C12.92 5.50575 12.6656 5.40039 12.4004 5.40039C12.1352 5.40039 11.8808 5.50575 11.6933 5.69328C11.5057 5.88082 11.4004 6.13517 11.4004 6.40039V11.4004H6.40039C6.13517 11.4004 5.88082 11.5057 5.69328 11.6933C5.50575 11.8808 5.40039 12.1352 5.40039 12.4004C5.40039 12.6656 5.50575 12.92 5.69328 13.1075C5.88082 13.295 6.13517 13.4004 6.40039 13.4004H11.4004V18.4004C11.4004 18.6656 11.5057 18.92 11.6933 19.1075C11.8808 19.295 12.1352 19.4004 12.4004 19.4004C12.6656 19.4004 12.92 19.295 13.1075 19.1075C13.295 18.92 13.4004 18.6656 13.4004 18.4004V13.4004H18.4004C18.6656 13.4004 18.92 13.295 19.1075 13.1075C19.295 12.92 19.4004 12.6656 19.4004 12.4004C19.4004 12.1352 19.295 11.8808 19.1075 11.6933C18.92 11.5057 18.6656 11.4004 18.4004 11.4004H13.4004Z" fill="white"/>
</svg>
