<svg width="20" height="20" viewBox="0 0 20 20" fill="none" xmlns="http://www.w3.org/2000/svg">
<path d="M16.2497 2.5H3.74967C2.83301 2.5 2.08301 3.25 2.08301 4.16667V15.8333C2.08301 16.75 2.83301 17.5 3.74967 17.5H16.2497C17.1663 17.5 17.9163 16.75 17.9163 15.8333V4.16667C17.9163 3.25 17.1663 2.5 16.2497 2.5ZM16.2497 15.8333H9.99967H7.91634V10V4.16667H16.2497V15.8333ZM3.74967 4.16667H6.24967V15.8333H3.74967V4.16667Z" fill="#F57B00"/>
<path d="M9.99968 5.83333C9.53944 5.83333 9.16634 6.20643 9.16634 6.66667V7.08333C9.16634 7.54357 9.53944 7.91667 9.99967 7.91667H14.1663C14.6266 7.91667 14.9997 7.54357 14.9997 7.08333V6.66667C14.9997 6.20643 14.6266 5.83333 14.1663 5.83333H9.99968Z" fill="#F57B00"/>
</svg>
