<svg width="84" height="25" viewBox="0 0 84 25" fill="none" xmlns="http://www.w3.org/2000/svg">
<g clip-path="url(#clip0_605_7795)">
<path fill-rule="evenodd" clip-rule="evenodd" d="M79.1575 24.1814V20.7115L77.5213 22.0713C75.8294 23.4771 73.5186 24.2203 70.8388 24.2203C63.8272 24.2203 59.1162 19.3528 59.1162 12.1083C59.1162 4.92455 63.8272 0.0977013 70.8388 0.0977013C73.6388 0.0977013 75.8751 0.844549 77.4857 2.31709L79.1575 3.84604V0.197091H83.2175V24.1814H79.1575ZM71.1417 3.66353C66.3029 3.66353 63.1763 6.99831 63.1763 12.1591C63.1763 17.3199 66.3029 20.6547 71.1417 20.6547C76.011 20.6547 79.1575 17.3199 79.1575 12.1591C79.1575 6.99831 76.011 3.66353 71.1417 3.66353ZM52.4984 11.1083C52.4984 4.75058 48.7139 3.80129 46.4579 3.80129C45.237 3.80129 44.103 4.05689 42.9913 4.58258L41.9692 5.06557L42.6001 6.00279C44.5238 8.8596 45.583 12.4516 45.583 16.1171C45.583 22.8634 42.2065 24.2795 39.374 24.2795C33.9289 24.2795 33.1158 19.1961 33.1158 16.166C33.1158 12.6125 34.1702 8.95763 36.0083 6.13824L36.6176 5.2036L35.6069 4.72875C34.8918 4.39289 33.8835 4.07831 33.1158 3.97418V0.243871C35.0245 0.401972 37.0776 1.1175 38.7452 2.19953L39.2922 2.55411L39.8287 2.18435C41.8377 0.799938 44.1508 0.0977013 46.704 0.0977013C52.8098 0.0977013 56.4549 4.21377 56.4549 11.1083V24.2795H52.4984V11.1083ZM40.151 9.60251L39.2388 7.73065L38.3872 9.63072C37.527 11.5502 37.0724 13.7593 37.0724 16.0189C37.0724 19.0422 37.8301 20.5754 39.3249 20.5754C40.8092 20.5754 41.6266 18.905 41.6266 15.8715C41.6266 13.7513 41.1165 11.5837 40.151 9.60251ZM26.7418 17.2944L26.7944 22.5785C26.8043 23.036 26.6396 23.469 26.3308 23.794C26.2281 23.9019 26.1142 23.9934 25.9923 24.066C25.7578 24.2058 25.4916 24.2795 25.2197 24.2795C25.2053 24.2795 25.1905 24.2795 25.1761 24.2788C24.3415 24.2543 23.6685 23.5431 23.6439 22.66L23.6255 21.4246C23.624 21.3167 23.6622 21.2153 23.733 21.1385C23.8039 21.0612 23.8991 21.0176 24.0009 21.0158C24.1975 21.009 24.3841 21.191 24.3876 21.4124L24.4058 22.6416C24.4184 23.0946 24.7658 23.4611 25.197 23.4737C25.4217 23.4863 25.6336 23.3913 25.7932 23.2234C25.9527 23.0555 26.0375 22.8319 26.0325 22.5944L25.9817 17.4814C25.2911 16.5587 23.8485 15.1663 22.1546 16.6186L26.1505 0.224617C26.1872 0.0602776 26.4062 0.0537691 26.4518 0.215532L30.4477 16.5571C30.4477 16.5571 27.991 14.7621 26.7418 17.2944ZM10.7585 9.89594C12.7664 10.2416 15.0411 10.633 16.7379 11.6106C18.6361 12.7041 19.5201 14.3282 19.5201 16.722C19.5201 19.0074 18.6251 20.7994 16.8595 22.0479C14.8472 23.4715 11.9805 24.2878 8.99416 24.2878C6.63809 24.2878 4.00745 23.9808 0.951718 23.3487L0.782227 23.3137V19.4512L1.04175 19.51C3.02358 19.9602 5.07307 20.4257 9.05124 20.4257C14.627 20.4257 15.4595 18.4553 15.4595 17.2806C15.4595 14.8467 12.6199 14.3582 9.61368 13.8409C7.60541 13.4951 5.33084 13.1037 3.63402 12.1262C1.73599 11.0328 0.851921 9.40862 0.851921 7.01485C0.851921 2.58028 4.07972 0.123871 9.94046 0.0977013C12.1209 0.0925487 14.9848 0.529837 17.8931 1.26814L17.8788 4.75018L17.6054 4.68157C14.7432 3.96265 12.799 3.52618 9.94141 3.52618C5.27511 3.52618 4.9124 5.76875 4.9124 6.45607C4.9124 8.89038 7.75199 9.37865 10.7585 9.89594Z" fill="#F57B00"/>
</g>
<defs>
<clipPath id="clip0_605_7795">
<rect width="84" height="25" fill="white"/>
</clipPath>
</defs>
</svg>
